<?xml version="1.0" encoding="UTF-8" standalone="no"?>
<!-- Generated by IcoMoon.io -->

<svg
   xmlns:dc="http://purl.org/dc/elements/1.1/"
   xmlns:cc="http://creativecommons.org/ns#"
   xmlns:rdf="http://www.w3.org/1999/02/22-rdf-syntax-ns#"
   xmlns:svg="http://www.w3.org/2000/svg"
   xmlns="http://www.w3.org/2000/svg"
   xmlns:sodipodi="http://sodipodi.sourceforge.net/DTD/sodipodi-0.dtd"
   xmlns:inkscape="http://www.inkscape.org/namespaces/inkscape"
   version="1.1"
   width="1024"
   height="1024"
   viewBox="0 0 1024 1024"
   id="svg66"
   sodipodi:docname="rest-task.svg"
   inkscape:version="0.92.4 (5da689c313, 2019-01-14)">
  <metadata
     id="metadata72">
    <rdf:RDF>
      <cc:Work
         rdf:about="">
        <dc:format>image/svg+xml</dc:format>
        <dc:type
           rdf:resource="http://purl.org/dc/dcmitype/StillImage" />
        <dc:title />
      </cc:Work>
    </rdf:RDF>
  </metadata>
  <defs
     id="defs70" />
  <sodipodi:namedview
     pagecolor="#ffffff"
     bordercolor="#666666"
     borderopacity="1"
     objecttolerance="10"
     gridtolerance="10"
     guidetolerance="10"
     inkscape:pageopacity="0"
     inkscape:pageshadow="2"
     inkscape:window-width="1680"
     inkscape:window-height="1006"
     id="namedview68"
     showgrid="false"
     showguides="true"
     inkscape:guide-bbox="true"
     inkscape:snap-global="true"
     inkscape:snap-bbox="false"
     inkscape:zoom="0.79101562"
     inkscape:cx="309.7284"
     inkscape:cy="512"
     inkscape:window-x="-3"
     inkscape:window-y="0"
     inkscape:window-maximized="0"
     inkscape:current-layer="text4416" />
  <g
     id="icomoon-ignore" />
  <path
     d="m 220.16,123.14486 c -109.568,0 -199.68,89.088 -199.68,198.656 v 411.648 c 0,109.568 90.112,198.656 199.68,198.656 h 583.68 c 110.592,0 199.68,-89.088 199.68,-198.656 v -411.648 c 0,-109.568 -89.088,-198.656 -199.68,-198.656 z m 0,61.44 h 583.68 c 76.8,0 138.24,60.416 138.24,137.216 v 411.648 c 0,76.8 -61.44,137.216 -138.24,137.216 H 220.16 c -76.8,0 -138.24,-60.416 -138.24,-137.216 v -411.648 c 0,-76.8 61.44,-137.216 138.24,-137.216 z"
     id="path64"
     inkscape:connector-curvature="0"
     sodipodi:nodetypes="ssssssssssssssssss" />
  <g
     aria-label="{ }"
     style="font-style:normal;font-variant:normal;font-weight:bold;font-stretch:normal;font-size:513.95074463px;line-height:1.25;font-family:Arial;-inkscape-font-specification:'Arial, Bold';font-variant-ligatures:normal;font-variant-caps:normal;font-variant-numeric:normal;font-feature-settings:normal;text-align:start;letter-spacing:0px;word-spacing:0px;writing-mode:lr-tb;text-anchor:start;fill:#000000;fill-opacity:1;stroke:none;stroke-width:2.67682648"
     id="text4416">
    <path
       d="m 256.90678,557.73917 v -60.2286 q 18.31953,-1.00381 27.60477,-5.52096 9.28524,-4.51714 16.06096,-15.05715 6.77572,-10.79096 9.28525,-26.85192 2.00762,-12.04572 2.00762,-41.90907 0,-48.68478 4.51714,-67.75718 4.51715,-19.32334 16.31191,-30.86715 11.79477,-11.79477 34.3805,-18.57049 15.3081,-4.51715 48.18288,-4.51715 h 13.30048 v 59.97765 q -27.85573,0 -35.88621,3.26239 -7.77952,3.01143 -11.54381,9.53619 -3.76429,6.27382 -3.76429,21.83287 0,15.81001 -2.25857,59.97765 -1.25476,24.8443 -6.52477,40.40336 -5.27,15.3081 -13.55143,25.3462 -8.03048,10.0381 -24.8443,20.82906 14.8062,8.53238 24.09144,20.0762 9.5362,11.29286 14.55525,27.60478 5.01905,16.31191 6.52476,43.66573 1.75667,41.65812 1.75667,53.20194 0,16.56286 4.01524,23.08763 4.01524,6.52476 12.04572,9.78714 8.28143,3.51334 35.3843,3.51334 v 60.2286 h -13.30048 q -33.87859,0 -51.94717,-5.52095 -18.06858,-5.27001 -30.61621,-17.81763 -12.29667,-12.54763 -16.56286,-31.11811 -4.26619,-18.31954 -4.26619,-57.97003 0,-46.17527 -4.01524,-59.97765 -5.52096,-20.0762 -16.81382,-28.60859 -11.04191,-8.78334 -34.12954,-10.0381 z"
       style="stroke-width:2.67682648"
       id="path3804"
       inkscape:connector-curvature="0" />
    <path
       d="m 767.09323,557.73917 q -18.31953,1.00381 -27.60478,5.52096 -9.28524,4.51714 -16.06096,15.3081 -6.52476,10.54 -9.28524,26.60096 -2.00762,12.04573 -2.00762,41.65812 0,48.68479 -4.51714,68.00813 -4.2662,19.32335 -16.06097,30.86716 -11.79476,11.79477 -34.63144,18.57049 -15.30811,4.51714 -48.18288,4.51714 h -13.30049 v -60.2286 q 26.85192,0 35.13335,-3.51334 8.28144,-3.26238 12.04572,-9.78714 4.01524,-6.27382 4.01524,-21.58192 0.25096,-15.3081 2.25858,-58.47193 1.25476,-26.09907 6.77572,-41.65812 5.52095,-15.81001 14.55524,-26.60097 9.28524,-11.04191 23.58954,-19.32334 -18.57049,-12.04572 -27.10287,-23.58954 -11.79477,-16.56286 -16.06096,-42.16002 -2.76048,-17.56668 -4.01525,-77.29337 -0.25095,-18.82144 -3.51333,-25.09525 -3.01143,-6.27382 -11.29286,-9.5362 -8.03048,-3.51334 -36.38812,-3.51334 V 286.4595 h 13.30049 q 33.87858,0 51.94717,5.27001 18.06858,5.27 30.36525,18.06858 12.29667,12.54762 16.56287,31.11811 4.51714,18.31953 4.51714,57.97003 0,45.92431 3.76429,59.97765 5.52095,20.0762 16.81382,28.85954 11.29286,8.53238 34.38049,9.78715 z"
       style="stroke-width:2.67682648"
       id="path3806"
       inkscape:connector-curvature="0" />
  </g>
</svg>
