<?xml version="1.0" encoding="UTF-8" standalone="no"?>
<!-- Generated by IcoMoon.io -->

<svg
   xmlns:dc="http://purl.org/dc/elements/1.1/"
   xmlns:cc="http://creativecommons.org/ns#"
   xmlns:rdf="http://www.w3.org/1999/02/22-rdf-syntax-ns#"
   xmlns:svg="http://www.w3.org/2000/svg"
   xmlns="http://www.w3.org/2000/svg"
   xmlns:sodipodi="http://sodipodi.sourceforge.net/DTD/sodipodi-0.dtd"
   xmlns:inkscape="http://www.inkscape.org/namespaces/inkscape"
   version="1.1"
   width="1024"
   height="1024"
   viewBox="0 0 1024 1024"
   id="svg66"
   sodipodi:docname="alfresco-tasks.svg"
   inkscape:version="0.92.4 (5da689c313, 2019-01-14)">
  <metadata
     id="metadata72">
    <rdf:RDF>
      <cc:Work
         rdf:about="">
        <dc:format>image/svg+xml</dc:format>
        <dc:type
           rdf:resource="http://purl.org/dc/dcmitype/StillImage" />
        <dc:title></dc:title>
      </cc:Work>
    </rdf:RDF>
  </metadata>
  <defs
     id="defs70">
    <polygon
       points="11.419002,14 11.419002,0.0019 0.04175,0.0019 0.04175,14 "
       id="path-1" />
  </defs>
  <sodipodi:namedview
     pagecolor="#ffffff"
     bordercolor="#666666"
     borderopacity="1"
     objecttolerance="10"
     gridtolerance="10"
     guidetolerance="10"
     inkscape:pageopacity="0"
     inkscape:pageshadow="2"
     inkscape:window-width="1680"
     inkscape:window-height="1006"
     id="namedview68"
     showgrid="false"
     showguides="true"
     inkscape:guide-bbox="true"
     inkscape:snap-global="true"
     inkscape:snap-bbox="false"
     inkscape:zoom="0.79101562"
     inkscape:cx="309.7284"
     inkscape:cy="512"
     inkscape:window-x="-3"
     inkscape:window-y="0"
     inkscape:window-maximized="0"
     inkscape:current-layer="svg66" />
  <g
     id="icomoon-ignore" />
  <path
     d="m 220.16,123.14486 c -109.568,0 -199.68,89.088 -199.68,198.656 v 411.648 c 0,109.568 90.112,198.656 199.68,198.656 h 583.68 c 110.592,0 199.68,-89.088 199.68,-198.656 v -411.648 c 0,-109.568 -89.088,-198.656 -199.68,-198.656 z m 0,61.44 h 583.68 c 76.8,0 138.24,60.416 138.24,137.216 v 411.648 c 0,76.8 -61.44,137.216 -138.24,137.216 H 220.16 c -76.8,0 -138.24,-60.416 -138.24,-137.216 v -411.648 c 0,-76.8 61.44,-137.216 138.24,-137.216 z"
     id="path64"
     inkscape:connector-curvature="0"
     sodipodi:nodetypes="ssssssssssssssssss" />
  <g
     id="Branding/alfresco/logo-petals-bw-border"
     style="opacity:0.87000002;fill:none;fill-rule:evenodd;stroke:none;stroke-width:1"
     transform="matrix(17.670524,0,0,17.670524,264.76419,280.38941)">
    <path
       id="Shape-fill:petals"
       d="m 25.862087,17.530824 c -0.945356,0.945356 -2.20411,1.465966 -3.544491,1.465966 -1.340382,0 -2.599136,-0.52061 -3.544492,-1.465966 l -3.768195,-3.768136 h 4.98489 c 2.274881,0 4.321432,-1.352424 5.213754,-3.445542 l 0.144746,-0.3393816 0.277153,0.2435766 c 0.09201,0.08091 0.167228,0.150974 0.236635,0.22044 0.94678,0.94678 1.468221,2.205594 1.468221,3.544551 0,1.338899 -0.521441,2.597712 -1.468221,3.544492 z m -2.355737,5.856864 c -0.94672,0.94678 -2.205534,1.468221 -3.544491,1.468221 -2.764051,0 -5.012712,-2.248662 -5.012712,-5.012712 v -5.213458 l 3.362491,3.362492 c 1.070051,1.069991 2.492653,1.659296 4.005839,1.659296 0.785661,0 1.547475,-0.158271 2.264085,-0.470424 l 0.340034,-0.148067 0.03245,0.369457 c 0.01382,0.156729 0.02052,0.300941 0.02052,0.440704 0,1.339017 -0.52144,2.597771 -1.46822,3.544491 z m -5.601898,2.10967 c -0.105416,0.128254 -0.216526,0.250991 -0.330305,0.364711 -0.946721,0.94678 -2.205534,1.468221 -3.544492,1.468221 -1.338957,0 -2.597771,-0.521441 -3.544491,-1.468221 -0.9453564,-0.945296 -1.4660259,-2.20411 -1.4660259,-3.544491 0,-1.340381 0.5206695,-2.599136 1.4660259,-3.544492 l 3.81144,-3.811559 v 4.88167 c 0,2.302466 1.375263,4.358508 3.503619,5.237898 l 0.333152,0.137746 z m -9.31528,-0.605441 c -0.1624237,0.01554 -0.3230678,0.02331 -0.477483,0.02331 -1.3389576,0 -2.5977712,-0.52144 -3.5445509,-1.46822 -0.9467796,-0.94678 -1.4682203,-2.205593 -1.468161,-3.544491 0,-2.763992 2.2487204,-5.012712 5.0127119,-5.012712 h 5.333822 L 10.023698,18.31162 C 8.3855788,19.949798 7.9090449,22.387697 8.80985,24.5224 l 0.1413644,0.335051 z M 2.7415619,18.057544 2.4636381,17.826425 C 2.3384686,17.722375 2.2262907,17.620459 2.1207568,17.514807 v 0 C 1.1739771,16.568086 0.65253644,15.309332 0.65253644,13.970315 c 0,-1.338957 0.52144066,-2.597771 1.46822036,-3.544491 0.9453559,-0.9453562 2.2041695,-1.4659664 3.5444915,-1.4659664 1.3404407,0 2.5991949,0.5206102 3.5444915,1.4659664 l 3.8115002,3.81144 H 8.111689 c -2.294517,0 -4.3477712,1.368619 -5.2309576,3.486653 z M 4.6122822,4.5671797 C 5.5590025,3.6204 6.8176975,3.0990186 8.1565364,3.0990186 h 2.373e-4 c 1.3368814,0 2.5951613,0.5219153 3.5429493,1.4697034 0.947788,0.9477882 1.469763,2.2060678 1.469763,3.5429492 V 13.462756 L 9.6712059,9.9643576 C 8.6012144,8.8944254 7.1786127,8.3051203 5.6653669,8.3051203 c -0.7382627,0 -1.4577203,0.1404746 -2.1383813,0.4174492 L 3.1879602,8.8604932 3.1601975,8.4955441 c -0.011034,-0.1443305 -0.016136,-0.266356 -0.016136,-0.3838729 0,-1.3389576 0.5214406,-2.5977119 1.4682207,-3.5444915 z m 5.6205258,-2.1035 c 0.103813,-0.1248729 0.205788,-0.2369916 0.311678,-0.3429407 0.94672,-0.9467204 2.205534,-1.46822036 3.544491,-1.46822036 1.338958,0 2.597771,0.52149996 3.544492,1.46822036 0.945415,0.9453559 1.466025,2.2041695 1.466025,3.5444915 0,1.3403814 -0.52061,2.5991949 -1.466025,3.5444915 l -3.811441,3.8115 V 8.1116712 c 0,-2.2944576 -1.368559,-4.3477119 -3.486593,-5.2309576 L 10.001808,2.7416034 Z M 19.53735,3.106078 c 0.159932,-0.014297 0.307941,-0.021356 0.452449,-0.021356 1.338958,0 2.597771,0.5215 3.544492,1.4682204 0.946779,0.9467203 1.46822,2.2055339 1.46822,3.5444915 0,2.7640511 -2.248661,5.0127121 -5.012712,5.0127121 H 14.656036 L 18.094935,9.6712475 C 19.72813,8.0380525 20.207036,5.6058491 19.314952,3.475061 L 19.17418,3.1387051 Z m 6.786203,6.8742966 C 26.122511,9.7793322 25.899816,9.5888492 25.661697,9.4143831 l -0.13555,-0.099424 0.03097,-0.1651525 c 0.06496,-0.3459661 0.09794,-0.7000593 0.09794,-1.0523729 0,-1.5132458 -0.589305,-2.9359068 -1.659296,-4.0059576 -1.070051,-1.0699915 -2.492653,-1.6592966 -4.005958,-1.6592966 -0.330305,0 -0.665771,0.029839 -0.997085,0.088805 L 18.82543,2.5507045 18.72767,2.411713 C 18.539553,2.1442305 18.326706,1.8910441 18.094935,1.6592729 17.024884,0.58928136 15.602282,-2.3728814e-5 14.088977,-2.3728814e-5 12.575672,-2.3728814e-5 11.15307,0.58928136 10.08302,1.6592729 9.84935,1.8930017 9.6331805,2.1514678 9.4403839,2.4276712 L 9.3423246,2.5680864 9.17385,2.5375949 C 8.8400449,2.4770864 8.4978754,2.446417 8.1567737,2.446417 c -1.5132457,0 -2.9359068,0.5892457 -4.0059576,1.6592966 -1.0699915,1.0700508 -1.6592966,2.4927118 -1.6592966,4.0059576 0,0.3032542 0.025924,0.6146356 0.077119,0.9255424 l 0.027466,0.1671695 -0.1394661,0.096042 C 2.1724856,9.4961288 1.9042314,9.7194763 1.6592907,9.964417 0.58929915,11.034409 -5.9322034e-6,12.457069 -5.9322034e-6,13.970315 c 0,1.513305 0.5893050822034,2.935966 1.6592966322034,4.006017 0.2336695,0.23361 0.4921949,0.449839 0.7683983,0.642636 l 0.1404152,0.098 -0.030551,0.168534 c -0.060449,0.333805 -0.091119,0.675974 -0.091119,1.017017 0,1.513245 0.5892457,2.935966 1.6592966,4.006017 1.0700508,1.069991 2.4927711,1.659237 4.0059576,1.659237 0.3402119,0 0.6842203,-0.0312 1.0222966,-0.09278 l 0.1674661,-0.03055 0.098297,0.138992 c 0.1860339,0.263093 0.3959746,0.512068 0.6240089,0.740161 1.070051,1.069991 2.492652,1.659237 4.005898,1.659237 1.513246,0 2.935847,-0.589246 4.005958,-1.659237 0.242034,-0.242093 0.464017,-0.508627 0.659601,-0.791949 l 0.09753,-0.141246 0.168949,0.03008 c 0.32811,0.05837 0.664585,0.08798 1.00017,0.08798 1.513245,0 2.935847,-0.589246 4.005957,-1.659237 1.069992,-1.070111 1.659297,-2.492772 1.659297,-4.006017 0,-0.333924 -0.03037,-0.672475 -0.09023,-1.00628 l -0.02954,-0.164797 0.135373,-0.09836 c 0.241026,-0.175178 0.470127,-0.370822 0.680839,-0.581533 1.069992,-1.070111 1.659297,-2.492712 1.659297,-4.005899 0,-1.513246 -0.589305,-2.935847 -1.659297,-4.0059574 z"
       inkscape:connector-curvature="0"
       style="fill:#000000" />
  </g>
</svg>
