<?xml version="1.0" encoding="UTF-8" standalone="no"?>
<!-- Generated by IcoMoon.io -->

<svg
   xmlns:dc="http://purl.org/dc/elements/1.1/"
   xmlns:cc="http://creativecommons.org/ns#"
   xmlns:rdf="http://www.w3.org/1999/02/22-rdf-syntax-ns#"
   xmlns:svg="http://www.w3.org/2000/svg"
   xmlns="http://www.w3.org/2000/svg"
   xmlns:sodipodi="http://sodipodi.sourceforge.net/DTD/sodipodi-0.dtd"
   xmlns:inkscape="http://www.inkscape.org/namespaces/inkscape"
   version="1.1"
   width="1024"
   height="1024"
   viewBox="0 0 1024 1024"
   id="svg66"
   sodipodi:docname="salesforce-task.svg"
   inkscape:version="0.92.4 (5da689c313, 2019-01-14)">
  <metadata
     id="metadata72">
    <rdf:RDF>
      <cc:Work
         rdf:about="">
        <dc:format>image/svg+xml</dc:format>
        <dc:type
           rdf:resource="http://purl.org/dc/dcmitype/StillImage" />
        <dc:title />
      </cc:Work>
    </rdf:RDF>
  </metadata>
  <defs
     id="defs70" />
  <sodipodi:namedview
     pagecolor="#ffffff"
     bordercolor="#666666"
     borderopacity="1"
     objecttolerance="10"
     gridtolerance="10"
     guidetolerance="10"
     inkscape:pageopacity="0"
     inkscape:pageshadow="2"
     inkscape:window-width="1680"
     inkscape:window-height="1006"
     id="namedview68"
     showgrid="false"
     showguides="true"
     inkscape:guide-bbox="true"
     inkscape:snap-global="true"
     inkscape:snap-bbox="false"
     inkscape:zoom="0.79101562"
     inkscape:cx="544.23704"
     inkscape:cy="512"
     inkscape:window-x="-3"
     inkscape:window-y="0"
     inkscape:window-maximized="0"
     inkscape:current-layer="svg66" />
  <path
     d="m 220.16,123.14486 c -109.568,0 -199.68,89.088 -199.68,198.656 v 411.648 c 0,109.568 90.112,198.656 199.68,198.656 h 583.68 c 110.592,0 199.68,-89.088 199.68,-198.656 v -411.648 c 0,-109.568 -89.088,-198.656 -199.68,-198.656 z m 0,61.44 h 583.68 c 76.8,0 138.24,60.416 138.24,137.216 v 411.648 c 0,76.8 -61.44,137.216 -138.24,137.216 H 220.16 c -76.8,0 -138.24,-60.416 -138.24,-137.216 v -411.648 c 0,-76.8 61.44,-137.216 138.24,-137.216 z"
     id="path64"
     inkscape:connector-curvature="0"
     sodipodi:nodetypes="ssssssssssssssssss" />
  <path
     sodipodi:nodetypes="cscccscccssscccc"
     inkscape:connector-curvature="0"
     id="surface1"
     d="m 356.72353,287.65208 c -77.86411,0 -141.16047,63.29634 -141.16047,141.16046 0,14.00312 2.08917,27.85097 6.22517,41.30356 -30.7031,24.03073 -48.62174,60.86769 -48.57332,99.85693 0,74.3351 64.7362,134.3283 140.05944,126.38098 21.1176,43.01158 65.61138,71.24369 114.02942,71.24369 45.31252,0 86.95485,-24.32196 109.62522,-62.91524 12.4131,4.29383 25.45858,6.47448 38.59328,6.45104 41.86325,0.14401 80.7246,-21.71443 102.34134,-57.56525 6.06991,0.77639 11.85748,1.10105 17.64507,1.10105 85.62794,0 155.27651,-69.64857 155.27651,-155.27651 0,-85.62796 -69.64857,-155.27653 -155.27651,-155.27653 -17.26393,0 -34.13261,2.8232 -50.29548,8.38494 -22.51015,-31.75843 -58.9962,-50.66151 -97.92302,-50.73308 -31.47695,-0.14118 -61.71395,12.26077 -84.03284,34.45726 -26.77927,-30.88463 -65.65613,-48.6103 -106.53381,-48.5733 z"
     style="stroke-width:14.11604786" />
</svg>
