<?xml version="1.0" encoding="UTF-8" standalone="no"?>
<!-- Generated by IcoMoon.io -->

<svg
   xmlns:dc="http://purl.org/dc/elements/1.1/"
   xmlns:cc="http://creativecommons.org/ns#"
   xmlns:rdf="http://www.w3.org/1999/02/22-rdf-syntax-ns#"
   xmlns:svg="http://www.w3.org/2000/svg"
   xmlns="http://www.w3.org/2000/svg"
   xmlns:sodipodi="http://sodipodi.sourceforge.net/DTD/sodipodi-0.dtd"
   xmlns:inkscape="http://www.inkscape.org/namespaces/inkscape"
   version="1.1"
   width="1024"
   height="1024"
   viewBox="0 0 1024 1024"
   id="svg66"
   sodipodi:docname="email-task.svg"
   inkscape:version="0.92.4 (5da689c313, 2019-01-14)">
  <metadata
     id="metadata72">
    <rdf:RDF>
      <cc:Work
         rdf:about="">
        <dc:format>image/svg+xml</dc:format>
        <dc:type
           rdf:resource="http://purl.org/dc/dcmitype/StillImage" />
        <dc:title />
      </cc:Work>
    </rdf:RDF>
  </metadata>
  <defs
     id="defs70" />
  <sodipodi:namedview
     pagecolor="#ffffff"
     bordercolor="#666666"
     borderopacity="1"
     objecttolerance="10"
     gridtolerance="10"
     guidetolerance="10"
     inkscape:pageopacity="0"
     inkscape:pageshadow="2"
     inkscape:window-width="1680"
     inkscape:window-height="1006"
     id="namedview68"
     showgrid="false"
     showguides="true"
     inkscape:guide-bbox="true"
     inkscape:snap-global="true"
     inkscape:snap-bbox="false"
     inkscape:zoom="0.79101562"
     inkscape:cx="479.41848"
     inkscape:cy="512"
     inkscape:window-x="-3"
     inkscape:window-y="0"
     inkscape:window-maximized="0"
     inkscape:current-layer="svg66" />
  <g
     id="icomoon-ignore" />
  <path
     d="m 220.16,126.19358 c -109.568,0 -199.68,89.088 -199.68,198.656 v 411.648 c 0,109.568 90.112,198.656 199.68,198.656 h 583.68 c 110.592,0 199.68,-89.088 199.68,-198.656 v -411.648 c 0,-109.568 -89.088,-198.656 -199.68,-198.656 z m 0,61.44 h 583.68 c 76.8,0 138.24,60.416 138.24,137.216 v 411.648 c 0,76.8 -61.44,137.216 -138.24,137.216 H 220.16 c -76.8,0 -138.24,-60.416 -138.24,-137.216 v -411.648 c 0,-76.8 61.44,-137.216 138.24,-137.216 z"
     id="path64"
     inkscape:connector-curvature="0"
     sodipodi:nodetypes="ssssssssssssssssss" />
  <path
     inkscape:connector-curvature="0"
     d="M 734.07078,308.60279 H 289.92921 c -30.53473,0 -55.24011,24.98297 -55.24011,55.5177 l -0.27758,333.10617 c 0,30.53474 24.98296,55.5177 55.51769,55.5177 h 444.14157 c 30.53473,0 55.5177,-24.98296 55.5177,-55.5177 V 364.12049 c 0,-30.53473 -24.98297,-55.5177 -55.5177,-55.5177 z m 0,388.62387 H 289.92921 V 419.63818 L 512,558.43242 734.07078,419.63818 Z M 512,502.91473 289.92921,364.12049 h 444.14157 z"
     id="path4145"
     style="stroke-width:27.75884819" />
</svg>
