<?xml version="1.0" encoding="UTF-8" standalone="no"?>
<!-- Generated by IcoMoon.io -->

<svg
   xmlns:dc="http://purl.org/dc/elements/1.1/"
   xmlns:cc="http://creativecommons.org/ns#"
   xmlns:rdf="http://www.w3.org/1999/02/22-rdf-syntax-ns#"
   xmlns:svg="http://www.w3.org/2000/svg"
   xmlns="http://www.w3.org/2000/svg"
   xmlns:sodipodi="http://sodipodi.sourceforge.net/DTD/sodipodi-0.dtd"
   xmlns:inkscape="http://www.inkscape.org/namespaces/inkscape"
   version="1.1"
   width="1024"
   height="1024"
   viewBox="0 0 1024 1024"
   id="svg66"
   sodipodi:docname="twilio-task.svg"
   inkscape:version="0.92.4 (5da689c313, 2019-01-14)">
  <metadata
     id="metadata72">
    <rdf:RDF>
      <cc:Work
         rdf:about="">
        <dc:format>image/svg+xml</dc:format>
        <dc:type
           rdf:resource="http://purl.org/dc/dcmitype/StillImage" />
        <dc:title></dc:title>
      </cc:Work>
    </rdf:RDF>
  </metadata>
  <defs
     id="defs70" />
  <sodipodi:namedview
     pagecolor="#ffffff"
     bordercolor="#666666"
     borderopacity="1"
     objecttolerance="10"
     gridtolerance="10"
     guidetolerance="10"
     inkscape:pageopacity="0"
     inkscape:pageshadow="2"
     inkscape:window-width="1528"
     inkscape:window-height="961"
     id="namedview68"
     showgrid="false"
     showguides="true"
     inkscape:guide-bbox="true"
     inkscape:snap-global="true"
     inkscape:snap-bbox="false"
     inkscape:zoom="0.13085619"
     inkscape:cx="1417.3819"
     inkscape:cy="-248.14294"
     inkscape:window-x="154"
     inkscape:window-y="52"
     inkscape:window-maximized="0"
     inkscape:current-layer="svg66" />
  <g
     id="icomoon-ignore" />
  <path
     d="m 220.16,107.52 c -109.568,0 -199.68,89.088 -199.68,198.656 v 411.648 c 0,109.568 90.112,198.656 199.68,198.656 h 583.68 c 110.592,0 199.68,-89.088 199.68,-198.656 V 306.176 c 0,-109.568 -89.088,-198.656 -199.68,-198.656 z m 0,61.44 h 583.68 c 76.8,0 138.24,60.416 138.24,137.216 v 411.648 c 0,76.8 -61.44,137.216 -138.24,137.216 H 220.16 c -76.8,0 -138.24,-60.416 -138.24,-137.216 V 306.176 c 0,-76.8 61.44,-137.216 138.24,-137.216 z"
     id="path64"
     inkscape:connector-curvature="0"
     sodipodi:nodetypes="ssssssssssssssssss" />
  <g
     transform="matrix(2.3250478,0,0,2.3250478,214.72055,214.06721)"
     style="fill:#cf272d"
     id="g3879">
    <path
       inkscape:connector-curvature="0"
       d="m 127.86,222.304 c -52.005,0 -94.164,-42.159 -94.164,-94.163 0,-52.005 42.159,-94.163 94.164,-94.163 52.004,0 94.162,42.158 94.162,94.163 0,52.004 -42.158,94.163 -94.162,94.163 z m 0,-222.023 C 57.245,0.281 0,57.527 0,128.141 0,198.756 57.245,256 127.86,256 c 70.614,0 127.859,-57.244 127.859,-127.859 0,-70.614 -57.245,-127.86 -127.86,-127.86 z"
       id="path3875" />
    <path
       inkscape:connector-curvature="0"
       d="m 133.116,96.297 c 0,-14.682 11.903,-26.585 26.586,-26.585 14.683,0 26.585,11.903 26.585,26.585 0,14.684 -11.902,26.586 -26.585,26.586 -14.683,0 -26.586,-11.902 -26.586,-26.586 m 0,63.686 c 0,-14.682 11.903,-26.586 26.586,-26.586 14.683,0 26.585,11.904 26.585,26.586 0,14.683 -11.902,26.586 -26.585,26.586 -14.683,0 -26.586,-11.903 -26.586,-26.586 m -63.685,0 c 0,-14.682 11.904,-26.586 26.586,-26.586 14.683,0 26.586,11.904 26.586,26.586 0,14.683 -11.903,26.586 -26.586,26.586 -14.682,0 -26.586,-11.903 -26.586,-26.586 m 0,-63.685 c 0,-14.683 11.904,-26.585 26.586,-26.585 14.683,0 26.586,11.902 26.586,26.585 0,14.684 -11.903,26.586 -26.586,26.586 -14.682,0 -26.586,-11.902 -26.586,-26.586"
       id="path3877" />
  </g>
</svg>
