<?xml version="1.0" encoding="UTF-8" standalone="no"?>
<!-- Generated by IcoMoon.io -->

<svg
   xmlns:dc="http://purl.org/dc/elements/1.1/"
   xmlns:cc="http://creativecommons.org/ns#"
   xmlns:rdf="http://www.w3.org/1999/02/22-rdf-syntax-ns#"
   xmlns:svg="http://www.w3.org/2000/svg"
   xmlns="http://www.w3.org/2000/svg"
   xmlns:sodipodi="http://sodipodi.sourceforge.net/DTD/sodipodi-0.dtd"
   xmlns:inkscape="http://www.inkscape.org/namespaces/inkscape"
   version="1.1"
   width="1024"
   height="1024"
   viewBox="0 0 1024 1024"
   id="svg66"
   sodipodi:docname="twilio-task.svg"
   inkscape:version="0.92.4 (5da689c313, 2019-01-14)">
  <metadata
     id="metadata72">
    <rdf:RDF>
      <cc:Work
         rdf:about="">
        <dc:format>image/svg+xml</dc:format>
        <dc:type
           rdf:resource="http://purl.org/dc/dcmitype/StillImage" />
        <dc:title></dc:title>
      </cc:Work>
    </rdf:RDF>
  </metadata>
  <defs
     id="defs70" />
  <sodipodi:namedview
     pagecolor="#ffffff"
     bordercolor="#666666"
     borderopacity="1"
     objecttolerance="10"
     gridtolerance="10"
     guidetolerance="10"
     inkscape:pageopacity="0"
     inkscape:pageshadow="2"
     inkscape:window-width="1691"
     inkscape:window-height="1013"
     id="namedview68"
     showgrid="false"
     showguides="true"
     inkscape:guide-bbox="true"
     inkscape:snap-global="true"
     inkscape:snap-bbox="false"
     inkscape:zoom="0.79101562"
     inkscape:cx="309.7284"
     inkscape:cy="512"
     inkscape:window-x="-3"
     inkscape:window-y="0"
     inkscape:window-maximized="0"
     inkscape:current-layer="svg66" />
  <g
     id="icomoon-ignore" />
  <path
     d="m 220.16,107.52 c -109.568,0 -199.68,89.088 -199.68,198.656 v 411.648 c 0,109.568 90.112,198.656 199.68,198.656 h 583.68 c 110.592,0 199.68,-89.088 199.68,-198.656 V 306.176 c 0,-109.568 -89.088,-198.656 -199.68,-198.656 z m 0,61.44 h 583.68 c 76.8,0 138.24,60.416 138.24,137.216 v 411.648 c 0,76.8 -61.44,137.216 -138.24,137.216 H 220.16 c -76.8,0 -138.24,-60.416 -138.24,-137.216 V 306.176 c 0,-76.8 61.44,-137.216 138.24,-137.216 z"
     id="path64"
     inkscape:connector-curvature="0"
     sodipodi:nodetypes="ssssssssssssssssss" />
  <g
     id="g4072"
     transform="matrix(1.0814814,0,0,1.0814814,235.1403,235.14089)">
    <g
       id="g3979">
	<g
   id="g3977">
		<path
   id="path3975"
   d="M 491.864,22.244 C 482.76,10.277 469.568,2.566 454.719,0.53 439.836,-1.512 425.027,2.396 413.022,11.528 397.9,23.031 384.011,41.116 373.183,57.791 370.242,55.919 367.192,54.134 364.003,52.462 329.026,34.124 285.613,32.003 256,32.003 c -29.613,0 -73.026,2.121 -108.002,20.46 -3.189,1.672 -6.239,3.456 -9.18,5.329 C 127.99,41.118 114.1,23.032 98.979,11.529 86.974,2.396 72.162,-1.513 57.281,0.529 42.431,2.565 29.239,10.277 20.135,22.244 11.033,34.211 7.12,48.982 9.122,63.837 c 2.006,14.888 9.723,28.117 21.727,37.249 16.268,12.376 39.443,21.344 59.615,27.405 -2.4,10.978 -3.615,22.854 -3.615,35.63 0,34.6 18.362,95.753 26.257,120.44 3.998,12.499 23.756,72.935 39.055,95.552 -0.346,7.132 -0.523,14.479 -0.523,22.052 v 3.563 l 1.54,3.212 c 0.585,1.221 8.275,16.762 26.055,31.357 C 181.949,480.289 215.331,512 256,512 c 40.669,0 74.05,-31.711 76.768,-71.703 17.78,-14.595 25.47,-30.135 26.055,-31.357 l 1.54,-3.212 v -3.563 c 0,-7.574 -0.179,-14.922 -0.523,-22.054 15.298,-22.62 35.057,-83.049 39.054,-95.549 7.895,-24.686 26.258,-85.839 26.258,-120.441 0,-12.778 -1.215,-24.653 -3.615,-35.63 20.171,-6.061 43.346,-15.03 59.615,-27.405 12.006,-9.132 19.722,-22.36 21.728,-37.249 1.999,-14.855 -1.912,-29.626 -11.016,-41.593 z M 100.935,98.897 C 84.59,94.063 63.275,86.364 49.83,76.137 44.499,72.082 41.076,66.227 40.189,59.65 c -0.885,-6.569 0.854,-13.113 4.896,-18.427 4.043,-5.314 9.886,-8.736 16.453,-9.638 6.571,-0.901 13.13,0.835 18.462,4.892 10.529,8.01 22.672,22.694 34.774,41.908 -5.39,6.228 -10.005,13.067 -13.839,20.512 z M 256,480.654 c -15.477,0 -29.169,-7.753 -37.421,-19.573 10.871,3.223 23.295,5.206 37.421,5.206 14.127,0 26.55,-1.982 37.421,-5.206 -8.252,11.82 -21.944,19.573 -37.421,19.573 z M 271.673,433.8 v -73.307 h -31.346 v 73.308 c -35.443,-5.295 -52.334,-27.686 -57.324,-35.704 0.491,-53.751 10.75,-95.127 29.744,-119.827 17.073,-22.203 35.937,-24.6 43.254,-24.6 7.317,0 26.181,2.397 43.254,24.6 18.996,24.703 29.256,66.085 29.744,119.846 -4.894,7.872 -21.784,30.372 -57.326,35.684 z m 97.362,-158.786 c -5.817,18.189 -11.55,34.321 -16.757,47.741 -6.039,-25.774 -15.447,-47.041 -28.176,-63.593 -25.567,-33.247 -56.143,-36.837 -68.102,-36.837 -11.959,0 -42.535,3.59 -68.102,36.837 -12.73,16.553 -22.137,37.82 -28.176,63.594 -5.207,-13.422 -10.94,-29.552 -16.757,-47.743 -15.277,-47.771 -24.768,-90.262 -24.768,-110.891 0,-40.803 14.509,-68.246 44.358,-83.897 28.846,-15.127 67.145,-16.875 93.444,-16.875 26.299,0 64.598,1.749 93.445,16.875 29.848,15.651 44.358,43.094 44.358,83.897 10e-4,20.629 -9.489,63.121 -24.767,110.892 z M 471.811,59.65 c -0.887,6.578 -4.31,12.432 -9.642,16.487 -13.443,10.227 -34.759,17.926 -51.104,22.76 -3.834,-7.445 -8.449,-14.284 -13.838,-20.511 12.101,-19.215 24.244,-33.899 34.773,-41.909 5.331,-4.056 11.887,-5.792 18.462,-4.892 6.567,0.901 12.41,4.324 16.453,9.638 4.043,5.313 5.781,11.856 4.896,18.427 z"
   inkscape:connector-curvature="0" />

	</g>

</g>
    <g
       id="g3985">
	<g
   id="g3983">
		<path
   id="path3981"
   d="m 175.937,172.473 c -11.34,0 -20.569,9.322 -20.569,20.835 0,11.51 9.228,20.841 20.569,20.841 11.355,0 20.582,-9.332 20.582,-20.841 -0.001,-11.513 -9.227,-20.835 -20.582,-20.835 z"
   inkscape:connector-curvature="0" />

	</g>

</g>
    <g
       id="g3991">
	<g
   id="g3989">
		<path
   id="path3987"
   d="m 336.051,172.473 c -11.34,0 -20.568,9.322 -20.568,20.835 0,11.51 9.228,20.841 20.568,20.841 11.355,0 20.582,-9.332 20.582,-20.841 -10e-4,-11.513 -9.228,-20.835 -20.582,-20.835 z"
   inkscape:connector-curvature="0" />

	</g>

</g>
    <g
       id="g3997">
	<g
   id="g3995">
		<path
   id="path3993"
   d="m 219.726,313.302 c -6.427,0 -11.658,5.284 -11.658,11.808 0,6.524 5.231,11.812 11.658,11.812 6.435,0 11.665,-5.289 11.665,-11.812 0,-6.524 -5.23,-11.808 -11.665,-11.808 z"
   inkscape:connector-curvature="0" />

	</g>

</g>
    <g
       id="g4003">
	<g
   id="g4001">
		<path
   id="path3999"
   d="m 292.266,313.303 c -6.427,-10e-4 -11.658,5.283 -11.658,11.808 0,6.524 5.231,11.812 11.658,11.812 6.435,0 11.665,-5.289 11.665,-11.812 0,-6.525 -5.23,-11.808 -11.665,-11.808 z"
   inkscape:connector-curvature="0" />

	</g>

</g>
    <g
       id="g4005">
</g>
    <g
       id="g4007">
</g>
    <g
       id="g4009">
</g>
    <g
       id="g4011">
</g>
    <g
       id="g4013">
</g>
    <g
       id="g4015">
</g>
    <g
       id="g4017">
</g>
    <g
       id="g4019">
</g>
    <g
       id="g4021">
</g>
    <g
       id="g4023">
</g>
    <g
       id="g4025">
</g>
    <g
       id="g4027">
</g>
    <g
       id="g4029">
</g>
    <g
       id="g4031">
</g>
    <g
       id="g4033">
</g>
  </g>
</svg>
