<?xml version="1.0" encoding="UTF-8" standalone="no"?>
<!-- Generated by IcoMoon.io -->

<svg
   xmlns:dc="http://purl.org/dc/elements/1.1/"
   xmlns:cc="http://creativecommons.org/ns#"
   xmlns:rdf="http://www.w3.org/1999/02/22-rdf-syntax-ns#"
   xmlns:svg="http://www.w3.org/2000/svg"
   xmlns="http://www.w3.org/2000/svg"
   xmlns:sodipodi="http://sodipodi.sourceforge.net/DTD/sodipodi-0.dtd"
   xmlns:inkscape="http://www.inkscape.org/namespaces/inkscape"
   version="1.1"
   width="1024"
   height="1024"
   viewBox="0 0 1024 1024"
   id="svg66"
   sodipodi:docname="twilio-task.svg"
   inkscape:version="0.92.4 (5da689c313, 2019-01-14)">
  <metadata
     id="metadata72">
    <rdf:RDF>
      <cc:Work
         rdf:about="">
        <dc:format>image/svg+xml</dc:format>
        <dc:type
           rdf:resource="http://purl.org/dc/dcmitype/StillImage" />
        <dc:title></dc:title>
      </cc:Work>
    </rdf:RDF>
  </metadata>
  <defs
     id="defs70" />
  <sodipodi:namedview
     pagecolor="#ffffff"
     bordercolor="#666666"
     borderopacity="1"
     objecttolerance="10"
     gridtolerance="10"
     guidetolerance="10"
     inkscape:pageopacity="0"
     inkscape:pageshadow="2"
     inkscape:window-width="1691"
     inkscape:window-height="1013"
     id="namedview68"
     showgrid="false"
     showguides="true"
     inkscape:guide-bbox="true"
     inkscape:snap-global="true"
     inkscape:snap-bbox="false"
     inkscape:zoom="0.79101562"
     inkscape:cx="309.7284"
     inkscape:cy="512"
     inkscape:window-x="-3"
     inkscape:window-y="0"
     inkscape:window-maximized="0"
     inkscape:current-layer="svg66" />
  <g
     id="icomoon-ignore" />
  <path
     d="m 220.16,123.14486 c -109.568,0 -199.68,89.088 -199.68,198.656 v 411.648 c 0,109.568 90.112,198.656 199.68,198.656 h 583.68 c 110.592,0 199.68,-89.088 199.68,-198.656 v -411.648 c 0,-109.568 -89.088,-198.656 -199.68,-198.656 z m 0,61.44 h 583.68 c 76.8,0 138.24,60.416 138.24,137.216 v 411.648 c 0,76.8 -61.44,137.216 -138.24,137.216 H 220.16 c -76.8,0 -138.24,-60.416 -138.24,-137.216 v -411.648 c 0,-76.8 61.44,-137.216 138.24,-137.216 z"
     id="path64"
     inkscape:connector-curvature="0"
     sodipodi:nodetypes="ssssssssssssssssss" />
  <g
     id="g4240"
     transform="matrix(1.6764602,0,0,1.6764602,205.73084,222.17632)">
    <path
       id="path4227"
       d="m 223.864,272.729 -38.608,-97.848 -56.603,89.184 H 93.166 l 79.052,-127.654 -8.875,-25.229 H 132.562 V 81.12 h 52.691 l 60.521,153.899 26.608,-8.668 8.867,29.813 z"
       inkscape:connector-curvature="0"
       style="fill:#f37b21" />
    <path
       id="path4229"
       d="m 337.623,182.198 c 0,85.579 -69.363,154.934 -154.934,154.934 -85.571,0 -154.936,-69.354 -154.936,-154.934 0,-85.569 69.363,-154.933 154.936,-154.933 85.57,0 154.934,69.364 154.934,154.933 z"
       inkscape:connector-curvature="0"
       style="fill:none;stroke:#f37b21;stroke-width:34" />
  </g>
</svg>
