<?xml version="1.0" encoding="UTF-8" standalone="no"?>
<!-- Generated by IcoMoon.io -->

<svg
   xmlns:dc="http://purl.org/dc/elements/1.1/"
   xmlns:cc="http://creativecommons.org/ns#"
   xmlns:rdf="http://www.w3.org/1999/02/22-rdf-syntax-ns#"
   xmlns:svg="http://www.w3.org/2000/svg"
   xmlns="http://www.w3.org/2000/svg"
   xmlns:sodipodi="http://sodipodi.sourceforge.net/DTD/sodipodi-0.dtd"
   xmlns:inkscape="http://www.inkscape.org/namespaces/inkscape"
   version="1.1"
   width="1024"
   height="1024"
   viewBox="0 0 1024 1024"
   id="svg66"
   sodipodi:docname="alfresco-tasks.svg"
   inkscape:version="0.92.4 (5da689c313, 2019-01-14)">
  <metadata
     id="metadata72">
    <rdf:RDF>
      <cc:Work
         rdf:about="">
        <dc:format>image/svg+xml</dc:format>
        <dc:type
           rdf:resource="http://purl.org/dc/dcmitype/StillImage" />
        <dc:title></dc:title>
      </cc:Work>
    </rdf:RDF>
  </metadata>
  <defs
     id="defs70">
    <polygon
       points="11.419002,14 11.419002,0.0019 0.04175,0.0019 0.04175,14 "
       id="path-1" />
  </defs>
  <sodipodi:namedview
     pagecolor="#ffffff"
     bordercolor="#666666"
     borderopacity="1"
     objecttolerance="10"
     gridtolerance="10"
     guidetolerance="10"
     inkscape:pageopacity="0"
     inkscape:pageshadow="2"
     inkscape:window-width="1680"
     inkscape:window-height="1006"
     id="namedview68"
     showgrid="false"
     showguides="true"
     inkscape:guide-bbox="true"
     inkscape:snap-global="true"
     inkscape:snap-bbox="false"
     inkscape:zoom="0.79101562"
     inkscape:cx="341.33334"
     inkscape:cy="512"
     inkscape:window-x="-3"
     inkscape:window-y="0"
     inkscape:window-maximized="0"
     inkscape:current-layer="svg66" />
  <g
     id="icomoon-ignore" />
  <path
     d="m 220.16,123.14486 c -109.568,0 -199.68,89.088 -199.68,198.656 v 411.648 c 0,109.568 90.112,198.656 199.68,198.656 h 583.68 c 110.592,0 199.68,-89.088 199.68,-198.656 v -411.648 c 0,-109.568 -89.088,-198.656 -199.68,-198.656 z m 0,61.44 h 583.68 c 76.8,0 138.24,60.416 138.24,137.216 v 411.648 c 0,76.8 -61.44,137.216 -138.24,137.216 H 220.16 c -76.8,0 -138.24,-60.416 -138.24,-137.216 v -411.648 c 0,-76.8 61.44,-137.216 138.24,-137.216 z"
     id="path64"
     inkscape:connector-curvature="0"
     sodipodi:nodetypes="ssssssssssssssssss" />
  <g
     id="g83"
     style="fill:none;fill-rule:evenodd"
     transform="matrix(10.809987,0,0,10.809987,221.42756,235.03635)">
    <path
       id="path75"
       d="m 19.712,0.133 a 5.381,5.381 0 0 0 -5.376,5.387 5.381,5.381 0 0 0 5.376,5.386 h 5.376 V 5.52 A 5.381,5.381 0 0 0 19.712,0.133 m 0,14.365 H 5.376 A 5.381,5.381 0 0 0 0,19.884 5.381,5.381 0 0 0 5.376,25.271 h 14.336 a 5.381,5.381 0 0 0 5.376,-5.387 5.381,5.381 0 0 0 -5.376,-5.386"
       inkscape:connector-curvature="0"
       style="fill:#36c5f0" />
    <path
       id="path77"
       d="m 53.76,19.884 a 5.381,5.381 0 0 0 -5.376,-5.386 5.381,5.381 0 0 0 -5.376,5.386 v 5.387 h 5.376 a 5.381,5.381 0 0 0 5.376,-5.387 m -14.336,0 V 5.52 A 5.381,5.381 0 0 0 34.048,0.133 5.381,5.381 0 0 0 28.672,5.52 v 14.364 a 5.381,5.381 0 0 0 5.376,5.387 5.381,5.381 0 0 0 5.376,-5.387"
       inkscape:connector-curvature="0"
       style="fill:#2eb67d" />
    <path
       id="path79"
       d="m 34.048,54 a 5.381,5.381 0 0 0 5.376,-5.387 5.381,5.381 0 0 0 -5.376,-5.386 h -5.376 v 5.386 A 5.381,5.381 0 0 0 34.048,54 m 0,-14.365 H 48.384 A 5.381,5.381 0 0 0 53.76,34.249 5.381,5.381 0 0 0 48.384,28.862 H 34.048 a 5.381,5.381 0 0 0 -5.376,5.387 5.381,5.381 0 0 0 5.376,5.386"
       inkscape:connector-curvature="0"
       style="fill:#ecb22e" />
    <path
       id="path81"
       d="m 0,34.249 a 5.381,5.381 0 0 0 5.376,5.386 5.381,5.381 0 0 0 5.376,-5.386 V 28.862 H 5.376 A 5.381,5.381 0 0 0 0,34.25 M 14.336,34.249 V 48.613 A 5.381,5.381 0 0 0 19.712,54 5.381,5.381 0 0 0 25.088,48.613 V 34.25 a 5.381,5.381 0 0 0 -5.376,-5.387 5.381,5.381 0 0 0 -5.376,5.387"
       inkscape:connector-curvature="0"
       style="fill:#e01e5a" />
  </g>
</svg>
